# xmcd
#
# Track frame offsets:
#	150
#	12290
#	31960
#	52570
#	66992
#	87662
#	107635
#	122382
#	132957
#	152020
#	160837
#	178932
#	197245
#	211955
#	225145
#	237952
#
# Disc length: 3410 seconds
#
# Revision: 0
# Processed by: cddbd v1.5.1PL2 Copyright (c) Steve Scherf et al.
# Submitted via: dBpowerAMP V4.0
#
DISCID=c90d5010
DTITLE=Various Artist - Baladas Vol.3
DYEAR=2000
DGENRE=Ballad
TTITLE0=Everybody's talking
TTITLE1=I will always love you
TTITLE2=Nights of white saten
TTITLE3=Silence is golden
TTITLE4=Everything I do
TTITLE5=You're so Vain
TTITLE6=Morning has broken
TTITLE7=All I have to do is dream
TTITLE8=Rocket man
TTITLE9=Yesterday
TTITLE10=Ebony and Ivory
TTITLE11=You're lost than lovin'feelin
TTITLE12=Never my love
TTITLE13=When a man loves a woman
TTITLE14=Maybe tomorrow
TTITLE15=Reflections of my life
EXTD=
EXTT0=
EXTT1=
EXTT2=
EXTT3=
EXTT4=
EXTT5=
EXTT6=
EXTT7=
EXTT8=
EXTT9=
EXTT10=
EXTT11=
EXTT12=
EXTT13=
EXTT14=
EXTT15=
PLAYORDER=
